<svg width="20" height="19" viewBox="0 0 20 19" fill="none" xmlns="http://www.w3.org/2000/svg">
<path d="M18.6218 9.5422C18.6231 9.35809 18.586 9.17573 18.5129 9.00675C18.4398 8.83776 18.3324 8.68583 18.1973 8.56064L10 1L1.80272 8.56064C1.66773 8.68583 1.56027 8.83776 1.48719 9.00675C1.41411 9.17573 1.37702 9.35809 1.37827 9.5422V16.9171C1.37827 17.2689 1.51801 17.6064 1.76677 17.8551C2.01552 18.1038 2.35291 18.2436 2.70469 18.2436H17.2954C17.6471 18.2436 17.9846 18.1038 18.2333 17.8551C18.4821 17.6064 18.6218 17.2689 18.6218 16.9171V9.5422Z" stroke="white" stroke-width="1.43" stroke-linecap="round" stroke-linejoin="round"/>
<path d="M10 18.2436V12.9379" stroke="white" stroke-width="1.43" stroke-linecap="round" stroke-linejoin="round"/>
</svg>
