<svg width="23" height="16" viewBox="0 0 23 16" fill="none" xmlns="http://www.w3.org/2000/svg">
<path d="M21.7491 2.62782L21.749 2.62736C21.5339 1.81593 20.8976 1.17954 20.0928 0.96112C19.7021 0.855659 18.9716 0.768073 18.0534 0.700518C17.1491 0.633986 16.1038 0.589394 15.1091 0.559588C14.1152 0.529806 13.1759 0.514902 12.4848 0.507447C12.1394 0.503721 11.8562 0.501859 11.6595 0.500929C11.5612 0.500464 11.4845 0.500232 11.4325 0.500116L11.3733 0.500014L11.3583 0.500002L11.3546 0.5L11.3537 0.5H11.3535L11.3534 0L11.3534 0.5H11.3532L11.3523 0.5L11.3486 0.500002L11.3336 0.500014L11.2744 0.500116C11.2224 0.500232 11.1457 0.500464 11.0473 0.500929C10.8506 0.501859 10.5675 0.503721 10.222 0.507447C9.53094 0.514902 8.59165 0.529806 7.59777 0.559588C6.60309 0.589394 5.55779 0.633986 4.65347 0.700518C3.73501 0.76809 3.00441 0.855704 2.61381 0.961201L2.61252 0.961552L2.61252 0.96155C1.81176 1.17552 1.17716 1.81329 0.957548 2.62851C0.735416 3.46385 0.618045 4.79052 0.558657 5.94414C0.529337 6.51368 0.514658 7.0286 0.507318 7.40116C0.50365 7.58733 0.50182 7.73768 0.500907 7.8412C0.500451 7.89295 0.500224 7.93298 0.500111 7.95991L0.500013 7.9903L0.500002 7.9978L0.5 7.99957L0.5 7.99996V7.99998V8.00002V8.00004L0.5 8.00043L0.500002 8.0022L0.500013 8.0097L0.500111 8.04009C0.500224 8.06702 0.500451 8.10705 0.500907 8.1588C0.50182 8.26232 0.50365 8.41267 0.507318 8.59884C0.514658 8.9714 0.529337 9.48632 0.558657 10.0559C0.618061 11.2098 0.73548 12.5369 0.957731 13.3722L0.957853 13.3726C1.1729 14.184 1.80907 14.8203 2.61381 15.0388L21.7491 2.62782ZM21.7491 2.62782C21.9714 3.46312 22.0888 4.79021 22.1482 5.94414C22.1775 6.51368 22.1922 7.0286 22.1996 7.40116C22.2032 7.58733 22.2051 7.73768 22.206 7.8412C22.2064 7.89295 22.2066 7.93298 22.2068 7.95991L22.2069 7.9903L22.2069 7.9978L22.2069 7.99957V7.99996V7.99998V8.00002M21.7491 2.62782L22.2069 8.00002M22.2069 8.00002V8.00004V8.00043L22.2069 8.0022L22.2069 8.0097L22.2068 8.04009C22.2066 8.06702 22.2064 8.10705 22.206 8.1588C22.2051 8.26232 22.2032 8.41267 22.1996 8.59884C22.1922 8.9714 22.1775 9.48632 22.1482 10.0559C22.0888 11.2095 21.9714 12.5363 21.7493 13.3716C21.5296 14.1868 20.8951 14.8245 20.0944 15.0384L20.0931 15.0388C19.7025 15.1443 18.9719 15.2319 18.0534 15.2995C17.1491 15.366 16.1038 15.4106 15.1091 15.4404C14.1152 15.4702 13.1759 15.4851 12.4848 15.4926C12.1394 15.4963 11.8562 15.4981 11.6595 15.4991C11.5612 15.4995 11.4845 15.4998 11.4325 15.4999L11.3733 15.5L11.3583 15.5L11.3546 15.5H11.3537H11.3535L11.3534 16L11.3534 15.5H11.3532H11.3523L11.3486 15.5L11.3336 15.5L11.2744 15.4999C11.2224 15.4998 11.1457 15.4995 11.0473 15.4991C10.8506 15.4981 10.5675 15.4963 10.222 15.4926C9.53094 15.4851 8.59165 15.4702 7.59777 15.4404C6.60309 15.4106 5.55779 15.366 4.65347 15.2995C3.73508 15.2319 3.00452 15.1443 2.6139 15.0388L22.2069 8.00002Z" fill="white" stroke="black"/>
<path d="M9.03217 11.3732V4.62286L14.9679 7.99607L9.03217 11.3732Z" fill="black"/>
</svg>
